<svg xmlns="http://www.w3.org/2000/svg" viewBox="0 0 576 512">
    <g id="1"><path d="M64 416v64c0 17.7-14.3 32-32 32s-32-14.3-32-32V416c0-17.7 14.3-32 32-32s32 14.3 32 32z"/></g>
    <g id="2"><path d="M160 288c17.7 0 32 14.3 32 32V480c0 17.7-14.3 32-32 32s-32-14.3-32-32V320c0-17.7 14.3-32 32-32z"/></g>
    <g id="3"><path d="M320 224V480c0 17.7-14.3 32-32 32s-32-14.3-32-32V224c0-17.7 14.3-32 32-32s32 14.3 32 32z"/></g>
    <g id="4"><path d="M416 96c17.7 0 32 14.3 32 32V480c0 17.7-14.3 32-32 32s-32-14.3-32-32V128c0-17.7 14.3-32 32-32z"/></g>
    <g id="5"><path d="M544 0c17.7 0 32 14.3 32 32V480c0 17.7-14.3 32-32 32s-32-14.3-32-32V32c0-17.7 14.3-32 32-32z"/></g>
</svg>